<svg width="125" height="125" viewBox="0 0 125 125" fill="none" xmlns="http://www.w3.org/2000/svg">
<g clip-path="url(#clip0_852_89)">
<path d="M124.273 62.2048C124.273 96.4851 96.4843 124.274 62.2048 124.274C27.9253 124.274 0.135864 96.4843 0.135864 62.2048C0.135864 27.9253 27.9253 0.136719 62.2048 0.136719C96.4843 0.136719 124.273 27.9253 124.273 62.2048Z" fill="#118338"/>
<path d="M97.4556 136.865H25.489C25.489 132.8 26.1609 128.886 27.409 125.244C27.6327 124.586 27.8771 123.935 28.1416 123.29V123.284C28.3993 122.64 28.6846 122.009 28.9831 121.385C30.1697 118.882 31.6489 116.542 33.3652 114.398C33.7992 113.863 34.2399 113.341 34.694 112.838C34.9185 112.58 35.1555 112.329 35.3933 112.078C35.6303 111.834 35.8681 111.59 36.1125 111.345V111.339C36.4177 111.034 36.7295 110.742 37.0413 110.45C37.3532 110.166 37.6725 109.88 37.9976 109.596C38.2695 109.366 38.5539 109.128 38.8324 108.904V108.897C38.8524 108.883 38.8665 108.87 38.8865 108.856C38.8998 108.843 38.9206 108.829 38.9339 108.815C38.9547 108.802 38.968 108.789 38.9813 108.774C39.3205 108.51 39.6532 108.238 39.9991 107.988C40.1072 107.906 40.2161 107.831 40.325 107.75C40.4331 107.676 40.5421 107.601 40.6501 107.52C40.7657 107.438 40.8805 107.351 41.0027 107.269C41.0094 107.262 41.0235 107.255 41.0368 107.249C41.1183 107.195 41.1998 107.133 41.2813 107.086C41.4235 106.985 41.5731 106.883 41.7153 106.801V106.795C41.8442 106.706 41.9664 106.625 42.0953 106.543C42.4545 106.313 42.8138 106.096 43.1805 105.878C43.5463 105.661 43.9197 105.451 44.293 105.247C44.3064 105.234 44.3197 105.24 44.3197 105.24V105.234C44.53 105.117 44.7404 104.996 44.9441 104.873C45.0256 104.826 45.1005 104.778 45.1811 104.731C45.3175 104.643 45.4597 104.561 45.6019 104.473C45.7449 104.385 45.8804 104.289 46.016 104.202C46.2737 104.032 46.5315 103.856 46.776 103.665C46.7959 103.658 46.8092 103.646 46.83 103.631C46.8974 103.577 46.9656 103.529 47.0404 103.475C47.2366 103.34 47.4204 103.19 47.61 103.034H47.6166C47.9152 102.797 48.2004 102.56 48.4847 102.302C48.5055 102.288 48.533 102.268 48.5529 102.24C48.8315 101.997 49.1092 101.739 49.3803 101.474C49.5641 101.291 49.7536 101.109 49.9299 100.917C50.6758 100.137 51.361 99.3042 51.9855 98.4211C53.1862 96.7456 54.1557 94.9005 54.8683 92.9339C54.8683 92.9265 54.8683 92.9265 54.875 92.919V92.9123C55.7365 90.5109 56.2046 87.9265 56.2046 85.2266L61.4415 85.254H61.469L66.8414 85.2814C66.8414 87.9473 67.2954 90.5042 68.1369 92.8782V92.8857L68.1436 92.8932C68.8421 94.8664 69.8058 96.719 70.9924 98.3937C72.2272 100.143 73.699 101.704 75.3678 103.04H75.3745C75.4219 103.088 75.4768 103.128 75.5242 103.162C75.5782 103.203 75.6256 103.25 75.6797 103.291C75.7005 103.305 75.7204 103.325 75.7478 103.339C75.8701 103.434 75.9923 103.528 76.1212 103.623C76.3648 103.808 76.616 103.984 76.8737 104.153C76.9278 104.194 76.9752 104.228 77.0301 104.262C77.1041 104.309 77.1789 104.364 77.2537 104.411C77.3485 104.479 77.4433 104.54 77.5456 104.594C77.6196 104.643 77.6944 104.689 77.7759 104.737C77.8849 104.805 77.993 104.865 78.1019 104.934C78.2715 105.035 78.4478 105.137 78.6241 105.232C78.6715 105.245 78.7056 105.273 78.7463 105.292C79.0448 105.455 79.3434 105.631 79.6344 105.801C79.9329 105.971 80.2181 106.147 80.51 106.33C80.6522 106.418 80.7877 106.499 80.9232 106.595C81.0255 106.656 81.127 106.724 81.2284 106.798V106.805C81.2425 106.812 81.2492 106.819 81.2558 106.819L81.3373 106.873C81.4122 106.92 81.4795 106.974 81.5544 107.022C81.9685 107.293 82.3751 107.586 82.775 107.884C82.8432 107.932 82.9181 107.979 82.9854 108.033V108.04H82.9995C83.338 108.298 83.6772 108.556 84.0098 108.827L84.0639 108.868C84.0847 108.882 84.098 108.894 84.1121 108.908C84.2335 109.004 84.3491 109.099 84.4647 109.2C84.7424 109.431 85.021 109.668 85.2921 109.913C85.5024 110.096 85.7062 110.278 85.909 110.469C86.0787 110.618 86.2416 110.774 86.398 110.923C86.5601 111.079 86.7231 111.236 86.8794 111.391V111.399C87.286 111.805 87.6868 112.219 88.0735 112.647C88.4602 113.074 88.8402 113.507 89.2127 113.949C94.3615 120.17 97.4556 128.147 97.4556 136.865Z" fill="#ECC19C"/>
<path d="M97.4556 136.865H25.489C25.489 132.8 26.1609 128.886 27.409 125.244C27.6327 124.586 27.8771 123.934 28.1416 123.29V123.284C28.3993 122.64 28.6846 122.009 28.9831 121.385C30.1697 118.881 31.6489 116.541 33.3652 114.398C33.7992 113.862 34.2399 113.341 34.694 112.838C34.9185 112.58 35.1555 112.329 35.3933 112.078C35.6303 111.833 35.8681 111.59 36.1125 111.345C36.4177 111.04 36.7295 110.742 37.0413 110.45C37.3532 110.165 37.6725 109.88 37.9976 109.596C38.2695 109.365 38.5539 109.128 38.8324 108.904C38.8524 108.89 38.8665 108.87 38.8865 108.856C38.8998 108.842 38.9206 108.829 38.9339 108.815C38.9472 108.802 38.968 108.795 38.9813 108.781C39.3205 108.51 39.6532 108.252 39.9991 107.994C40.1072 107.913 40.2161 107.832 40.325 107.75C40.4331 107.676 40.5421 107.601 40.6501 107.52L41.0368 107.256C41.2605 107.099 41.4842 106.951 41.7153 106.801C41.8442 106.713 41.9664 106.631 42.0953 106.551C42.4545 106.319 42.8138 106.096 43.1805 105.878C43.5463 105.661 43.9197 105.451 44.293 105.247C44.3064 105.234 44.3197 105.24 44.3197 105.24V105.234C44.53 105.117 44.7404 104.996 44.9441 104.873C45.0256 104.833 45.1005 104.784 45.1811 104.737C45.3241 104.656 45.4663 104.561 45.6019 104.474C45.7449 104.385 45.8804 104.29 46.016 104.202C46.2737 104.033 46.5315 103.857 46.776 103.665C46.7959 103.659 46.8092 103.646 46.83 103.632C46.8974 103.578 46.9656 103.53 47.0404 103.476C47.0944 103.428 47.1551 103.381 47.2167 103.333C47.284 103.285 47.3456 103.231 47.4129 103.177C47.4811 103.13 47.5418 103.076 47.6033 103.028L47.61 103.035L47.6166 103.042C49.2315 104.69 51.1306 106.053 53.2402 107.038C55.0039 107.879 56.9239 108.448 58.9386 108.707C59.0609 108.733 59.1898 108.748 59.3186 108.76C59.7934 108.814 60.2749 108.848 60.763 108.861H60.7696C60.9933 108.876 61.2112 108.882 61.4415 108.882H61.5022C61.7267 108.882 61.9438 108.876 62.1608 108.861H62.1674C62.6555 108.855 63.1303 108.821 63.6051 108.767H63.6118C63.7482 108.753 63.877 108.74 64.0059 108.713C66.0132 108.461 67.9266 107.892 69.6902 107.065C71.8197 106.074 73.7397 104.704 75.3678 103.049L75.3745 103.042C75.4219 103.09 75.4768 103.13 75.5242 103.164C75.5716 103.205 75.6256 103.245 75.6797 103.285C75.7005 103.305 75.7271 103.319 75.7478 103.339C75.8701 103.434 75.9923 103.529 76.1212 103.624C76.3648 103.808 76.616 103.99 76.8737 104.161C76.9278 104.202 76.9752 104.236 77.0301 104.269L77.2537 104.412C77.3485 104.479 77.4433 104.541 77.5456 104.595C77.6196 104.649 77.7011 104.696 77.7759 104.745C77.8849 104.812 77.993 104.873 78.1019 104.934C78.2715 105.036 78.4478 105.138 78.6241 105.233C78.6715 105.246 78.7056 105.273 78.7463 105.293C79.0448 105.456 79.3434 105.632 79.6344 105.801C79.9329 105.978 80.2181 106.154 80.51 106.339C80.6522 106.419 80.7877 106.507 80.9232 106.596C81.0255 106.664 81.127 106.732 81.2284 106.807C81.2425 106.813 81.2492 106.82 81.2558 106.82C81.2833 106.84 81.3099 106.862 81.3373 106.881L81.3781 106.908C81.4388 106.949 81.5003 106.983 81.5544 107.024C81.9685 107.295 82.3751 107.588 82.775 107.885C82.8499 107.933 82.9181 107.987 82.9854 108.042H82.9995C83.338 108.299 83.6772 108.557 84.0098 108.828L84.0639 108.869L84.1121 108.903V108.91C84.2335 109.005 84.3491 109.1 84.4647 109.202C84.7424 109.433 85.021 109.67 85.2921 109.914C85.5024 110.097 85.7062 110.279 85.909 110.47C86.0787 110.619 86.2416 110.776 86.398 110.924C86.5601 111.087 86.7231 111.244 86.8794 111.399C87.286 111.806 87.6868 112.219 88.0735 112.647C88.4602 113.075 88.8402 113.508 89.2127 113.95C94.3615 120.169 97.4556 128.147 97.4556 136.865Z" fill="#CAD3E1"/>
<path d="M84.1121 108.904V136.865H38.8865V108.856C38.9006 108.842 38.9206 108.829 38.9347 108.815C38.948 108.801 38.968 108.795 38.9821 108.78C39.3214 108.51 39.6531 108.252 39.999 107.995C40.108 107.912 40.2161 107.832 40.325 107.75C40.4331 107.675 40.542 107.601 40.651 107.52L41.0376 107.255C41.2613 107.099 41.485 106.95 41.7153 106.801C41.8442 106.713 41.9664 106.631 42.0953 106.55C42.4545 106.319 42.8146 106.096 43.1805 105.878C43.5472 105.661 43.9205 105.45 44.293 105.247C44.3072 105.233 44.3205 105.24 44.3205 105.24V105.233C44.5308 105.118 44.7412 104.995 44.9449 104.873C45.0256 104.832 45.1004 104.785 45.1819 104.738C45.3241 104.655 45.4671 104.561 45.6027 104.473C45.7449 104.385 45.8804 104.29 46.0159 104.202C46.2737 104.033 46.5315 103.856 46.776 103.666C46.7967 103.658 46.81 103.646 46.83 103.632C46.8982 103.578 46.9664 103.53 47.0404 103.475C47.0944 103.428 47.156 103.38 47.2167 103.332C47.2848 103.285 47.3455 103.231 47.4137 103.177C47.4819 103.129 47.5426 103.075 47.6033 103.026L47.61 103.034L47.6175 103.041C49.2314 104.689 51.1306 106.053 53.241 107.037C55.0039 107.877 56.9238 108.447 58.9386 108.705C59.0609 108.732 59.1897 108.746 59.3186 108.761C59.7934 108.814 60.2749 108.848 60.7638 108.862H60.7705C60.9941 108.875 61.2112 108.882 61.4415 108.882H61.503C61.7267 108.882 61.9437 108.874 62.1608 108.862H62.1674C62.6564 108.855 63.1312 108.821 63.606 108.767H63.6126C63.7481 108.754 63.877 108.74 64.0059 108.712C66.014 108.461 67.9265 107.892 69.6902 107.064C71.8206 106.074 73.7405 104.704 75.3678 103.049L75.3753 103.042C75.4227 103.09 75.4768 103.129 75.5242 103.164C75.5716 103.204 75.6264 103.246 75.6805 103.286C75.7004 103.306 75.7279 103.32 75.7478 103.34C75.8701 103.435 75.9923 103.53 76.1212 103.625C76.3657 103.808 76.6168 103.991 76.8737 104.161C76.9286 104.201 76.976 104.235 77.03 104.269L77.2537 104.411C77.3493 104.479 77.4441 104.54 77.5456 104.595C77.6204 104.649 77.7019 104.696 77.7759 104.744C77.8848 104.812 77.9938 104.873 78.1019 104.934C78.2715 105.035 78.4478 105.137 78.6241 105.232C78.6715 105.246 78.7056 105.273 78.7463 105.293C79.0448 105.455 79.3433 105.632 79.6352 105.801C79.9337 105.977 80.2181 106.155 80.51 106.337C80.6521 106.419 80.7885 106.507 80.9241 106.595C81.0255 106.663 81.1269 106.731 81.2292 106.806C81.2425 106.813 81.2492 106.821 81.2558 106.821C81.2833 106.84 81.3107 106.861 81.3373 106.88L81.3781 106.908C81.4396 106.949 81.5003 106.982 81.5544 107.023C81.9684 107.295 82.3759 107.586 82.7759 107.884C82.8507 107.932 82.918 107.986 82.9871 108.04H83.0004C83.3396 108.298 83.6789 108.556 84.0115 108.827L84.0655 108.868L84.1121 108.904Z" fill="#0A471F"/>
<path d="M89.0913 39.2435V59.8727C89.0913 60.1304 89.0846 60.3874 89.078 60.646V60.7674C89.0713 61.1133 89.0439 61.4592 89.0239 61.8051C89.0164 61.9215 89.0098 62.0429 89.0031 62.1585C89.0031 62.1926 88.9965 62.2334 88.9965 62.2741C88.9832 62.3897 88.9832 62.4978 88.9757 62.6134C88.9624 62.7963 88.9491 62.9784 88.9217 63.163C88.9217 63.1888 88.9216 63.2162 88.915 63.2445C88.915 63.2711 88.9083 63.3052 88.9017 63.3318C88.895 63.4199 88.8876 63.5089 88.8743 63.5904C88.8676 63.6578 88.8609 63.7259 88.8468 63.8C88.8468 63.834 88.8402 63.8681 88.8335 63.9089C88.7861 64.3155 88.7321 64.7163 88.6639 65.1229C88.6439 65.2451 88.6231 65.3674 88.6032 65.4896C88.589 65.6044 88.5691 65.7191 88.5483 65.8355C88.5483 65.8422 88.5483 65.8422 88.5416 65.8488C88.4876 66.1274 88.4402 66.4051 88.3787 66.6762C88.372 66.7377 88.3587 66.7918 88.3454 66.8458C88.3313 66.8999 88.3246 66.9547 88.3113 67.0021C88.3047 67.0362 88.298 67.0703 88.2905 67.0969C88.2905 67.1119 88.2839 67.1244 88.2839 67.131C88.2498 67.2666 88.2232 67.4021 88.1891 67.5376C88.1891 67.5651 88.1824 67.5917 88.1691 67.6191C88.1691 67.6399 88.1616 67.6599 88.155 67.6873C88.155 67.7073 88.1483 67.7281 88.1417 67.7414C88.1209 67.8694 88.081 68.005 88.0535 68.1347C88.0469 68.1422 88.0469 68.1422 88.0469 68.1488C88.0195 68.271 87.9854 68.4008 87.9446 68.5213C87.938 68.528 87.938 68.528 87.938 68.5363C87.8024 69.0843 87.6394 69.6281 87.4698 70.1644C87.4632 70.1711 87.4632 70.1711 87.4632 70.1777C87.3817 70.4355 87.3002 70.6866 87.212 70.9444C87.2054 70.971 87.1921 70.9984 87.1854 71.0259C87.1039 71.2562 87.0225 71.4874 86.941 71.7177C86.9135 71.7851 86.8869 71.8532 86.8595 71.9289C86.778 72.1459 86.6965 72.3621 86.6084 72.5792C86.5069 72.8436 86.398 73.1013 86.2899 73.3591C86.1951 73.5886 86.0928 73.8206 85.9914 74.0509C85.9781 74.0917 85.9573 74.1258 85.944 74.1665C85.8284 74.4102 85.7203 74.6546 85.6047 74.8924C85.4891 75.1427 85.3669 75.3947 85.238 75.645C84.9944 76.1406 84.7299 76.6345 84.4647 77.1168L84.0988 77.7687C83.0544 79.5656 81.8945 81.2553 80.6322 82.8152C80.4626 83.038 80.2863 83.2551 80.1034 83.4663C79.8522 83.7706 79.5945 84.07 79.3367 84.361C79.1064 84.6196 78.8752 84.8765 78.6382 85.1285C78.4752 85.3048 78.3123 85.4736 78.1493 85.6432C77.6545 86.1521 77.1523 86.6402 76.6509 87.1025C76.5145 87.2372 76.3723 87.3603 76.2301 87.4892C75.999 87.6995 75.7686 87.9024 75.5308 88.0987C75.3479 88.2617 75.1583 88.4172 74.9679 88.5735C74.4798 88.9734 73.9917 89.3601 73.4961 89.7201C73.2924 89.8765 73.0828 90.0253 72.8724 90.1675C72.5332 90.412 72.1873 90.6423 71.8414 90.866C71.6509 90.9949 71.4547 91.1171 71.2576 91.2327C70.5658 91.6601 69.8673 92.0526 69.1755 92.3918C69.0059 92.4808 68.8362 92.5615 68.6666 92.6429C68.497 92.7253 68.3207 92.8051 68.1369 92.8866C67.9133 92.9889 67.6896 93.0836 67.4659 93.1726C67.3778 93.2134 67.2896 93.2475 67.2015 93.2741C66.937 93.383 66.6651 93.4844 66.4007 93.5717C66.0681 93.694 65.7288 93.7971 65.3971 93.8911C65.1659 93.9584 64.9289 94.0199 64.6978 94.0748C64.6845 94.0815 64.6712 94.0881 64.6504 94.0881C64.42 94.143 64.1897 94.1971 63.9585 94.2378C63.8978 94.2519 63.8363 94.2644 63.7756 94.2719C63.586 94.3052 63.3956 94.3392 63.206 94.36C62.9341 94.4008 62.663 94.434 62.392 94.4482C62.2963 94.4615 62.209 94.4673 62.1134 94.4673C61.8964 94.4814 61.6793 94.4881 61.469 94.4881H61.4424C61.232 94.4881 61.0283 94.4806 60.8179 94.4673C60.7364 94.4673 60.6549 94.4606 60.5734 94.4482C60.3838 94.4407 60.1868 94.4207 59.9839 94.3933C59.9431 94.3933 59.8957 94.3866 59.855 94.38C59.6039 94.3459 59.3527 94.3043 59.095 94.2578C58.8779 94.2237 58.6609 94.1763 58.4372 94.1222C57.2773 93.8586 56.0832 93.4578 54.8758 92.9215C53.8447 92.4675 52.7995 91.9179 51.7618 91.2801C51.2396 90.9616 50.7174 90.6223 50.2018 90.2623C49.9441 90.0785 49.6863 89.8964 49.4285 89.706C48.6211 89.1165 47.8212 88.472 47.0337 87.7802C46.8167 87.5831 46.5997 87.3861 46.3827 87.1832C46.1656 86.9861 45.9486 86.7824 45.7382 86.5861C45.2094 86.0772 44.6938 85.5484 44.1916 84.9988C43.9954 84.7884 43.7983 84.5705 43.6012 84.3477C43.0591 83.7365 42.5302 83.1062 42.028 82.4477C41.8309 82.2107 41.648 81.9662 41.465 81.7226C40.7799 80.8129 40.1288 79.8641 39.5176 78.8796C39.3555 78.616 39.1925 78.3449 39.0362 78.0797C38.8466 77.7604 38.6636 77.4361 38.4799 77.1093C37.8022 75.8886 37.1777 74.6197 36.6347 73.3109C36.5532 73.1205 36.4726 72.9309 36.4044 72.7413C36.2963 72.4968 36.2007 72.2457 36.1125 72.0013C35.977 71.6412 35.8481 71.2828 35.7259 70.9228C35.6036 70.5627 35.4889 70.1968 35.3733 69.831C35.2652 69.4784 35.1629 69.125 35.0681 68.7658C34.9592 68.3933 34.8644 68.0141 34.7763 67.6266C34.7696 67.6191 34.7696 67.6125 34.7696 67.6067C34.763 67.5659 34.7488 67.5243 34.7422 67.4844C34.6133 66.9431 34.4986 66.3935 34.3963 65.8372C34.2607 65.1046 34.1526 64.3579 34.0712 63.6045C34.0371 63.3667 34.0163 63.1306 33.9963 62.8928C33.9689 62.6408 33.9489 62.3972 33.9348 62.146C33.9015 61.6912 33.8807 61.2305 33.8674 60.7691C33.8608 60.4772 33.8541 60.1928 33.8541 59.9009V39.2435C33.8541 37.6769 33.983 36.1444 34.2333 34.6518C35.6718 26.0838 41.0509 18.8529 48.4448 14.884C50.5411 13.7581 52.807 12.8967 55.1876 12.3404C55.201 12.3337 55.2151 12.3337 55.2284 12.3337C55.6284 12.2448 56.0291 12.1566 56.4358 12.0818L56.5372 12.0618C56.9106 12.0011 57.2839 11.9404 57.6639 11.8856C57.8668 11.8589 58.0772 11.8315 58.2809 11.8107C58.4846 11.7841 58.6884 11.7633 58.8846 11.7425H58.9461C59.1424 11.7234 59.3394 11.7084 59.5357 11.6951C59.7394 11.6818 59.9431 11.6677 60.146 11.6544C60.5668 11.6411 60.9942 11.627 61.4216 11.627H61.469C62.7786 11.627 64.0608 11.7226 65.3222 11.8989C66.0889 12.0003 66.8481 12.1358 67.5948 12.3055C69.3925 12.7121 71.1221 13.295 72.7635 14.035C75.002 15.0395 77.0849 16.3284 78.9567 17.8675C80.5308 19.1564 81.9618 20.6074 83.2099 22.2097C85.9847 25.7437 87.9113 29.962 88.698 34.5745C88.9557 36.0961 89.0913 37.6494 89.0913 39.2435Z" fill="#ECC19C"/>
<path d="M56.504 52.4247V52.4172C55.1943 49.0794 51.9381 46.7188 48.1397 46.7188C43.1813 46.7188 39.1584 50.735 39.1584 55.6934C39.1584 60.6584 43.1813 64.6746 48.1397 64.6746C53.0981 64.6746 57.1143 60.6659 57.121 55.7067V55.6934C57.121 54.5409 56.904 53.435 56.504 52.4247ZM48.1397 63.2161C44.0021 63.2161 40.6236 59.8377 40.6236 55.6934C40.6236 51.5549 44.0021 48.1772 48.1397 48.1772C51.9448 48.1772 55.1062 51.026 55.5943 54.703V54.7172C55.6151 54.8793 55.6284 55.0431 55.6425 55.2061C55.6558 55.3757 55.6625 55.5445 55.6625 55.7075C55.6492 59.8452 52.2707 63.2161 48.1397 63.2161Z" fill="#1A1A1A"/>
<path d="M74.7376 46.7188C70.9317 46.7188 67.6763 49.0861 66.3874 52.4305V52.4371C66.3799 52.4371 66.3799 52.4371 66.3799 52.4438C65.9866 53.4549 65.7629 54.5467 65.7629 55.6934V55.7067C65.7696 60.6659 69.7858 64.6746 74.7376 64.6746C79.7034 64.6746 83.7188 60.6584 83.7188 55.6934C83.718 50.735 79.7034 46.7188 74.7376 46.7188ZM74.7376 63.2161C70.6066 63.2161 67.2347 59.8443 67.2214 55.7067V55.6934L67.283 54.7571C67.283 54.7296 67.2896 54.7088 67.2963 54.6822V54.6756C67.7844 51.0136 70.9392 48.1781 74.7376 48.1781C78.8819 48.1781 82.2603 51.5565 82.2603 55.6942C82.2603 59.8385 78.8819 63.2161 74.7376 63.2161Z" fill="#1A1A1A"/>
<path d="M67.2955 54.6808C67.288 54.7091 67.2805 54.7307 67.2805 54.7614L67.2223 55.6961V55.711H65.7613V55.6961C65.7538 53.3146 63.8255 51.3855 61.4432 51.3855C59.0617 51.3855 57.1185 53.3212 57.1185 55.7102H55.6575C55.6575 55.3751 55.6359 55.0383 55.5918 54.7174C55.7307 53.8767 56.045 53.1026 56.5048 52.4224C57.5716 50.8225 59.3835 49.7715 61.4432 49.7715C63.5037 49.7715 65.3306 50.83 66.3825 52.4307C66.3899 52.4382 66.3899 52.4448 66.3966 52.4515C66.8348 53.1092 67.1491 53.8692 67.2955 54.6808Z" fill="#1A1A1A"/>
<path d="M61.469 104.46L61.449 104.494L61.4415 104.508L60.9734 105.288V105.294L59.2238 108.232L58.9386 108.707L58.3624 109.67L58.1653 110.008C57.4128 111.277 56.1031 111.922 54.801 111.922C53.6069 111.922 52.4062 111.385 51.6196 110.294L46.83 103.632L46.8234 103.626C46.9523 103.53 47.0878 103.435 47.2167 103.334C47.2849 103.285 47.3456 103.231 47.4137 103.177C47.4744 103.124 47.5426 103.069 47.6033 103.022V103.029L47.6108 103.035H47.6175C47.916 102.797 48.2004 102.56 48.4856 102.303C48.5055 102.288 48.533 102.268 48.5529 102.241C48.8315 101.997 49.1092 101.74 49.3811 101.475C49.5641 101.291 49.7536 101.109 49.9299 100.919C50.6766 100.138 51.3618 99.3041 51.9855 98.4219L61.4415 104.439L61.449 104.446L61.469 104.46Z" fill="#E7ECF2"/>
<path d="M76.1195 103.626L71.3241 110.29C69.6769 112.58 66.2228 112.432 64.7776 110.009L61.4947 104.508L61.4673 104.46L70.9915 98.3955C72.2255 100.145 73.6981 101.705 75.3662 103.042C75.6173 103.246 75.8692 103.442 76.1195 103.626Z" fill="#E7ECF2"/>
<path d="M60.9759 108.792L55.033 110.791C54.1532 111.086 53.2435 110.432 53.2435 109.505V104.574C53.2435 103.647 54.1532 102.993 55.033 103.288L60.9759 105.287V108.792Z" fill="#2B385D"/>
<path d="M61.9596 108.792L67.9025 110.791C68.7822 111.086 69.6919 110.432 69.6919 109.505V104.574C69.6919 103.647 68.7822 102.993 67.9025 103.288L61.9596 105.287V108.792Z" fill="#2B385D"/>
<path d="M62.0452 109.62H60.8894C59.9714 109.62 59.2263 108.875 59.2263 107.957V106.123C59.2263 105.205 59.9714 104.46 60.8894 104.46H62.0452C62.964 104.46 63.7082 105.205 63.7082 106.123V107.957C63.7082 108.875 62.964 109.62 62.0452 109.62Z" fill="#2B385D"/>
<path d="M58.6227 78.52C56.3618 79.8288 53.8165 80.2163 51.42 79.7897C52.2441 77.4997 53.8473 75.4858 56.109 74.177C58.3699 72.8682 60.9152 72.4807 63.3033 72.9114C62.4876 75.1972 60.8844 77.2104 58.6227 78.52Z" fill="#3E271F"/>
<path d="M64.2629 78.52C66.5238 79.8288 69.0691 80.2163 71.4656 79.7897C70.6415 77.4997 69.0383 75.4858 66.7766 74.177C64.5157 72.8682 61.9704 72.4807 59.5823 72.9114C60.398 75.1972 62.002 77.2104 64.2629 78.52Z" fill="#3E271F"/>
<path d="M83.1824 22.2109C81.8329 25.27 80.0759 28.113 77.9996 30.6899C77.8782 30.8396 77.7559 30.9884 77.627 31.1381C73.3871 36.2461 67.8251 40.2208 61.4689 42.5474C61.4548 42.554 61.4348 42.5623 61.4215 42.5682C59.746 43.1852 58.0156 43.6874 56.2386 44.0599C55.0512 44.311 53.8439 44.5081 52.6165 44.6503C51.2054 44.8066 49.7669 44.8881 48.3092 44.8881C46.6404 44.8881 45.0056 44.7792 43.3975 44.568C41.8242 44.3726 40.2842 44.0799 38.7783 43.6874C38.0183 43.497 37.2791 43.2799 36.5465 43.0363C36.4443 43.0089 36.3428 42.9748 36.2414 42.9407C35.4273 42.6704 34.6399 42.3777 33.8532 42.0601C33.8466 42.0535 33.8333 42.0535 33.8258 42.0468V39.8V39.2437C33.8258 30.9452 37.497 23.5097 43.2968 18.4515C43.3027 18.4466 43.3085 18.4407 43.3143 18.4366C43.676 18.1214 44.046 17.8154 44.4244 17.5194C44.4976 17.462 44.5716 17.4063 44.6447 17.3498C44.9848 17.0887 45.3282 16.8334 45.68 16.5881C45.8172 16.4925 45.9585 16.401 46.0974 16.3087C46.4042 16.1033 46.7102 15.8963 47.0254 15.7034C47.4902 15.4173 47.9625 15.1437 48.4448 14.886C50.5402 13.7526 52.8061 12.8912 55.1868 12.3407C55.2009 12.334 55.2142 12.334 55.2275 12.334C55.6283 12.2392 56.0283 12.1578 56.4357 12.0829L56.5372 12.063C56.9105 11.9948 57.283 11.9416 57.663 11.8867C57.8668 11.8592 58.0771 11.8326 58.2809 11.8118C58.4838 11.7844 58.6875 11.7644 58.8845 11.7437H58.9452C59.1423 11.7237 59.3386 11.7104 59.5356 11.6963C59.7385 11.6821 59.9422 11.6697 60.146 11.6555C60.5667 11.6414 60.9941 11.6289 61.4215 11.6289H61.4689C62.7777 11.6289 64.0599 11.7229 65.3214 11.9C66.0814 12.0014 66.8272 12.1444 67.5673 12.3066C69.365 12.7132 71.0946 13.2969 72.736 14.0362C74.9745 15.0398 77.0566 16.3287 78.9292 17.8686C80.5033 19.1583 81.9343 20.6102 83.1824 22.2109Z" fill="#3E271F"/>
<path d="M89.0621 39.2408V44.6739C84.3541 41.0319 80.4542 36.4261 77.6387 31.1617C77.632 31.1551 77.632 31.1418 77.6254 31.1343C74.8573 25.9655 73.141 20.1657 72.7344 14.0332C74.9728 15.0377 77.0558 16.3274 78.9275 17.8665C80.5016 19.1554 81.9327 20.6064 83.1808 22.2079C86.8644 26.9018 89.0621 32.8098 89.0621 39.2408Z" fill="#3E271F"/>
<path d="M89.0622 39.8028L85.584 38.8516L85.638 39.2366C86.0879 42.4412 86.8471 45.3499 87.7958 47.921C88.4286 49.6372 89.0622 52.4494 89.0622 56.8241C89.0622 50.8321 89.0622 39.8028 89.0622 39.8028Z" fill="#3E271F"/>
<path d="M37.2999 38.8506L37.2525 39.2372C37.0621 40.5535 36.8251 41.8208 36.5466 43.0348C36.14 44.7727 35.6444 46.4075 35.0889 47.9192C34.5393 49.4192 33.983 51.7658 33.8541 55.259C33.8333 55.7546 33.8267 56.2776 33.8267 56.8256V42.0445V39.7994L33.8541 39.7927L37.2999 38.8506Z" fill="#3E271F"/>
</g>
<defs>
<clipPath id="clip0_852_89">
<rect width="124.137" height="124.137" fill="white" transform="translate(0.135864 0.135742)"/>
</clipPath>
</defs>
</svg>
