<svg width="120" height="121" viewBox="0 0 120 121" fill="none" xmlns="http://www.w3.org/2000/svg">
<path d="M60 120C93.1371 120 120 93.1371 120 60C120 26.8629 93.1371 0 60 0C26.8629 0 0 26.8629 0 60C0 93.1371 26.8629 120 60 120Z" fill="#118338"/>
<path opacity="0.4" d="M60 108C86.5097 108 108 86.5097 108 60C108 33.4903 86.5097 12 60 12C33.4903 12 12 33.4903 12 60C12 86.5097 33.4903 108 60 108Z" fill="#55F85C"/>
<path d="M60 10C68.4869 10 76.6263 13.3714 82.6274 19.3726C88.6286 25.3737 92 33.5131 92 42V83C92 84.5913 91.3679 86.1174 90.2426 87.2426C89.1174 88.3679 87.5913 89 86 89H34C32.4087 89 30.8826 88.3679 29.7574 87.2426C28.6321 86.1174 28 84.5913 28 83V42C28 33.5131 31.3714 25.3737 37.3726 19.3726C43.3737 13.3714 51.5131 10 60 10Z" fill="#7F3838"/>
<path opacity="0.4" d="M58.73 18H61.27C64.3863 18 67.472 18.6138 70.3511 19.8063C73.2301 20.9989 75.8461 22.7468 78.0496 24.9504C80.2532 27.1539 82.0011 29.7699 83.1937 32.6489C84.3862 35.528 85 38.6137 85 41.73V84.55C85 85.7302 84.5312 86.8621 83.6966 87.6966C82.8621 88.5312 81.7302 89 80.55 89H39.45C38.8656 89 38.287 88.8849 37.7471 88.6613C37.2072 88.4376 36.7166 88.1098 36.3034 87.6966C35.8902 87.2834 35.5624 86.7928 35.3387 86.2529C35.1151 85.713 35 85.1344 35 84.55V41.73C35 35.4364 37.5001 29.4006 41.9504 24.9504C46.4006 20.5001 52.4364 18 58.73 18Z" fill="#393C54"/>
<path d="M85 68C88.866 68 92 64.866 92 61C92 57.134 88.866 54 85 54C81.134 54 78 57.134 78 61C78 64.866 81.134 68 85 68Z" fill="#FBC0AA"/>
<path d="M60.0001 120C72.4333 120.017 84.5614 116.151 94.6901 108.94L91.3701 99.64C90.6797 97.7046 89.4098 96.0289 87.7333 94.8408C86.0567 93.6528 84.0549 93.01 82.0001 93H38.0501C35.9867 92.9997 33.9738 93.6377 32.2873 94.8265C30.6008 96.0153 29.3233 97.6966 28.6301 99.64L25.3101 108.94C35.4387 116.151 47.5669 120.017 60.0001 120Z" fill="#4BC190"/>
<path opacity="0.3" d="M41.0001 106L46.5501 108.92L44.0001 117.84C46.9514 118.648 49.9602 119.23 53.0001 119.58V92.5L40.6201 102.75C40.3808 102.964 40.1965 103.232 40.0827 103.532C39.9689 103.832 39.9289 104.155 39.9662 104.474C40.0034 104.792 40.1168 105.097 40.2968 105.363C40.4767 105.629 40.7179 105.847 41.0001 106Z" fill="#356CB6"/>
<path opacity="0.3" d="M67 92.5V119.59C70.0399 119.24 73.0486 118.658 76 117.85L73.46 108.92L79 106C79.2842 105.85 79.5281 105.634 79.711 105.369C79.8938 105.105 80.0103 104.801 80.0505 104.482C80.0908 104.163 80.0536 103.839 79.9421 103.537C79.8306 103.236 79.6481 102.966 79.41 102.75L67 92.5Z" fill="#356CB6"/>
<path d="M53 119.68C57.6499 120.24 62.3501 120.24 67 119.68V94H53V119.68Z" fill="white"/>
<path d="M60 84.75V94.5" stroke="#FBC0AA" stroke-width="14" stroke-linecap="round" stroke-linejoin="round"/>
<path d="M60 86.9995C53.3696 86.9995 47.0107 84.3656 42.3223 79.6772C37.6339 74.9888 35 68.6299 35 61.9995V45.5195C35 38.8891 37.6339 32.5303 42.3223 27.8419C47.0107 23.1535 53.3696 20.5195 60 20.5195C66.6304 20.5195 72.9893 23.1535 77.6777 27.8419C82.3661 32.5303 85 38.8891 85 45.5195V61.9995C85 68.6299 82.3661 74.9888 77.6777 79.6772C72.9893 84.3656 66.6304 86.9995 60 86.9995Z" fill="#FFD8C9"/>
<path d="M87.49 47.1196V42.3996C87.49 27.4496 75.78 14.7896 60.83 14.3996C57.1573 14.2914 53.5002 14.92 50.0744 16.2484C46.6486 17.5767 43.5237 19.5779 40.884 22.1337C38.2443 24.6895 36.1433 27.7482 34.705 31.1293C33.2668 34.5104 32.5204 38.1454 32.51 41.8196V47.1496C32.51 47.6801 32.7207 48.1888 33.0958 48.5638C33.4709 48.9389 33.9796 49.1496 34.51 49.1496H41.32C42.59 49.1503 43.8419 48.8487 44.9722 48.2696C46.1025 47.6906 47.0787 46.8508 47.82 45.8196L52.76 38.9396C53.2477 39.4561 53.7051 40.0004 54.13 40.5696C56.2727 43.2504 58.9919 45.4139 62.0857 46.8994C65.1794 48.3848 68.5681 49.1539 72 49.1496H85.45C85.7185 49.155 85.9854 49.1063 86.2347 49.0063C86.484 48.9063 86.7106 48.7572 86.901 48.5677C87.0914 48.3783 87.2416 48.1524 87.3428 47.9036C87.444 47.6548 87.4941 47.3882 87.49 47.1196Z" fill="#BC5B57"/>
<path opacity="0.1" d="M58.76 32.9404C63 41.6804 69.47 43.1504 74.85 43.1504H79.85" stroke="white" stroke-width="2" stroke-miterlimit="10" stroke-linecap="round"/>
<path opacity="0.1" d="M67 31C69.52 36.22 73.39 37.09 76.6 37.09H79.6" stroke="white" stroke-width="2" stroke-miterlimit="10" stroke-linecap="round"/>
<path d="M72 61.2803C73.6569 61.2803 75 59.9371 75 58.2803C75 56.6234 73.6569 55.2803 72 55.2803C70.3431 55.2803 69 56.6234 69 58.2803C69 59.9371 70.3431 61.2803 72 61.2803Z" fill="#515570"/>
<path d="M48 61.2803C49.6569 61.2803 51 59.9371 51 58.2803C51 56.6234 49.6569 55.2803 48 55.2803C46.3431 55.2803 45 56.6234 45 58.2803C45 59.9371 46.3431 61.2803 48 61.2803Z" fill="#515570"/>
<path opacity="0.1" d="M46.4201 68.6504C48.9496 68.6504 51.0001 67.3162 51.0001 65.6704C51.0001 64.0246 48.9496 62.6904 46.4201 62.6904C43.8906 62.6904 41.8401 64.0246 41.8401 65.6704C41.8401 67.3162 43.8906 68.6504 46.4201 68.6504Z" fill="#F85565"/>
<path opacity="0.1" d="M73.58 68.6504C76.1095 68.6504 78.16 67.3162 78.16 65.6704C78.16 64.0246 76.1095 62.6904 73.58 62.6904C71.0505 62.6904 69 64.0246 69 65.6704C69 67.3162 71.0505 68.6504 73.58 68.6504Z" fill="#F85565"/>
<path d="M60 63V67" stroke="#FBC0AA" stroke-width="4" stroke-linecap="round" stroke-linejoin="round"/>
<path opacity="0.2" d="M51 52H41.75" stroke="#515570" stroke-width="2" stroke-linecap="round" stroke-linejoin="round"/>
<path opacity="0.2" d="M78 52H68.75" stroke="#515570" stroke-width="2" stroke-linecap="round" stroke-linejoin="round"/>
<path opacity="0.4" d="M60 80C65 80 67 77 67 77H53C53 77 55 80 60 80Z" fill="#F85565"/>
<path d="M61.07 74.9298L60.52 75.4798C60.3846 75.6071 60.2058 75.6779 60.02 75.6779C59.8342 75.6779 59.6554 75.6071 59.52 75.4798L58.97 74.9298C57.83 73.7898 56.04 73.9998 54.7 75.3998L53 76.9998H67L65.34 75.3998C64 73.9998 62.21 73.7898 61.07 74.9298Z" fill="#F85565"/>
</svg>
